<mxfile host="app.diagrams.net" modified="2023-10-26T05:02:20.000Z" agent="Mozilla/5.0 (Windows NT 10.0; Win64; x64) AppleWebKit/537.36 (KHTML, like Gecko) Chrome/118.0.0.0 Safari/537.36 Edg/118.0.2088.61" etag="zos4w3XL0LL7SnQK6_HW" version="22.0.8" type="device">
  <diagram name="Page-1" id="X7gmm2cPvQHhTi98bEnP">
    <mxGraphModel dx="140" dy="79" grid="1" gridSize="10" guides="1" tooltips="1" connect="1" arrows="1" fold="1" page="1" pageScale="1" pageWidth="850" pageHeight="1100" math="0" shadow="0">
      <root>
        <mxCell id="0" />
        <mxCell id="1" parent="0" />
        <mxCell id="A1VcpV70ld59jbdtdWhl-1" value="&amp;nbsp;Evaluasi Penyediaan Layanan Cloud" style="rounded=1;whiteSpace=wrap;html=1;fillColor=#0050ef;fontColor=#ffffff;strokeColor=#001DBC;" vertex="1" parent="1">
          <mxGeometry x="364" y="40" width="120" height="60" as="geometry" />
        </mxCell>
        <mxCell id="A1VcpV70ld59jbdtdWhl-2" value="Perencanaan Evaluasi Penyediaan Layanan Cloud" style="rounded=0;whiteSpace=wrap;html=1;fillColor=#6a00ff;fontColor=#ffffff;strokeColor=#3700CC;fontSize=8;" vertex="1" parent="1">
          <mxGeometry y="160" width="70" height="40" as="geometry" />
        </mxCell>
        <mxCell id="A1VcpV70ld59jbdtdWhl-17" value="&lt;font style=&quot;font-size: 8px;&quot;&gt;Migrasi Data Ke Layanan Cloud&lt;/font&gt;" style="rounded=0;whiteSpace=wrap;html=1;fillColor=#60a917;fontColor=#ffffff;strokeColor=#2D7600;fontSize=8;" vertex="1" parent="1">
          <mxGeometry x="240" y="160" width="70" height="40" as="geometry" />
        </mxCell>
        <mxCell id="A1VcpV70ld59jbdtdWhl-18" value="Evaluasi Penyedia Layanan Cloud" style="rounded=0;whiteSpace=wrap;html=1;fillColor=#fa6800;fontColor=#000000;strokeColor=#C73500;fontSize=8;" vertex="1" parent="1">
          <mxGeometry x="80" y="160" width="70" height="40" as="geometry" />
        </mxCell>
        <mxCell id="A1VcpV70ld59jbdtdWhl-19" value="Pemilihan Penyedia Layanan Cloud" style="rounded=0;whiteSpace=wrap;html=1;fillColor=#76608a;fontColor=#ffffff;strokeColor=#432D57;fontSize=8;" vertex="1" parent="1">
          <mxGeometry x="160" y="160" width="70" height="40" as="geometry" />
        </mxCell>
        <mxCell id="A1VcpV70ld59jbdtdWhl-20" value="&lt;font style=&quot;font-size: 8px;&quot;&gt;Konfigurasi Layanan Cloud&lt;/font&gt;" style="rounded=0;whiteSpace=wrap;html=1;fillColor=#6d8764;fontColor=#ffffff;strokeColor=#3A5431;fontSize=8;" vertex="1" parent="1">
          <mxGeometry x="320" y="160" width="80" height="40" as="geometry" />
        </mxCell>
        <mxCell id="A1VcpV70ld59jbdtdWhl-21" value="Pengujian Dan Penyesuaian" style="rounded=0;whiteSpace=wrap;html=1;fillColor=#e3c800;fontColor=#000000;strokeColor=#B09500;fontSize=8;" vertex="1" parent="1">
          <mxGeometry x="414" y="160" width="70" height="40" as="geometry" />
        </mxCell>
        <mxCell id="A1VcpV70ld59jbdtdWhl-22" value="&lt;font style=&quot;font-size: 8px;&quot;&gt;Pelatihan Pengguna&lt;/font&gt;" style="rounded=0;whiteSpace=wrap;html=1;fillColor=#dae8fc;gradientColor=#7ea6e0;strokeColor=#6c8ebf;fontSize=8;" vertex="1" parent="1">
          <mxGeometry x="500" y="160" width="80" height="40" as="geometry" />
        </mxCell>
        <mxCell id="A1VcpV70ld59jbdtdWhl-24" value="&lt;font style=&quot;font-size: 8px;&quot;&gt;Peluncuran Layana Cloud&lt;/font&gt;" style="rounded=0;whiteSpace=wrap;html=1;fillColor=#fff2cc;strokeColor=#d6b656;fontSize=8;gradientColor=#ffd966;" vertex="1" parent="1">
          <mxGeometry x="590" y="160" width="70" height="40" as="geometry" />
        </mxCell>
        <mxCell id="A1VcpV70ld59jbdtdWhl-25" value="Pemeliharaan Dan Dukungan&amp;nbsp;" style="rounded=0;whiteSpace=wrap;html=1;fillColor=#f5f5f5;strokeColor=#666666;fontSize=8;gradientColor=#b3b3b3;" vertex="1" parent="1">
          <mxGeometry x="680" y="160" width="70" height="40" as="geometry" />
        </mxCell>
        <mxCell id="A1VcpV70ld59jbdtdWhl-26" value="Evaluasi Pasca-Implementasi" style="rounded=0;whiteSpace=wrap;html=1;fillColor=#cce5ff;strokeColor=#36393d;fontSize=8;" vertex="1" parent="1">
          <mxGeometry x="760" y="160" width="70" height="40" as="geometry" />
        </mxCell>
        <mxCell id="A1VcpV70ld59jbdtdWhl-29" value="" style="endArrow=none;html=1;rounded=0;" edge="1" parent="1">
          <mxGeometry width="50" height="50" relative="1" as="geometry">
            <mxPoint x="40" y="140" as="sourcePoint" />
            <mxPoint x="800" y="140" as="targetPoint" />
          </mxGeometry>
        </mxCell>
        <mxCell id="A1VcpV70ld59jbdtdWhl-31" value="" style="endArrow=none;html=1;rounded=0;entryX=0.5;entryY=1;entryDx=0;entryDy=0;" edge="1" parent="1" target="A1VcpV70ld59jbdtdWhl-1">
          <mxGeometry width="50" height="50" relative="1" as="geometry">
            <mxPoint x="424" y="140" as="sourcePoint" />
            <mxPoint x="540" y="220" as="targetPoint" />
          </mxGeometry>
        </mxCell>
        <mxCell id="A1VcpV70ld59jbdtdWhl-32" value="" style="endArrow=none;html=1;rounded=0;exitX=0.575;exitY=-0.032;exitDx=0;exitDy=0;exitPerimeter=0;" edge="1" parent="1" source="A1VcpV70ld59jbdtdWhl-2">
          <mxGeometry width="50" height="50" relative="1" as="geometry">
            <mxPoint x="110" y="220" as="sourcePoint" />
            <mxPoint x="40" y="140" as="targetPoint" />
          </mxGeometry>
        </mxCell>
        <mxCell id="A1VcpV70ld59jbdtdWhl-33" value="" style="endArrow=none;html=1;rounded=0;" edge="1" parent="1">
          <mxGeometry width="50" height="50" relative="1" as="geometry">
            <mxPoint x="110" y="160" as="sourcePoint" />
            <mxPoint x="110" y="140" as="targetPoint" />
          </mxGeometry>
        </mxCell>
        <mxCell id="A1VcpV70ld59jbdtdWhl-34" value="" style="endArrow=none;html=1;rounded=0;exitX=0.5;exitY=0;exitDx=0;exitDy=0;" edge="1" parent="1" source="A1VcpV70ld59jbdtdWhl-19">
          <mxGeometry width="50" height="50" relative="1" as="geometry">
            <mxPoint x="180" y="220" as="sourcePoint" />
            <mxPoint x="195" y="140" as="targetPoint" />
            <Array as="points" />
          </mxGeometry>
        </mxCell>
        <mxCell id="A1VcpV70ld59jbdtdWhl-35" value="" style="endArrow=none;html=1;rounded=0;exitX=0.5;exitY=0;exitDx=0;exitDy=0;" edge="1" parent="1" source="A1VcpV70ld59jbdtdWhl-17">
          <mxGeometry width="50" height="50" relative="1" as="geometry">
            <mxPoint x="250" y="220" as="sourcePoint" />
            <mxPoint x="275" y="140" as="targetPoint" />
          </mxGeometry>
        </mxCell>
        <mxCell id="A1VcpV70ld59jbdtdWhl-36" value="" style="endArrow=none;html=1;rounded=0;exitX=0.5;exitY=0;exitDx=0;exitDy=0;" edge="1" parent="1" source="A1VcpV70ld59jbdtdWhl-20">
          <mxGeometry width="50" height="50" relative="1" as="geometry">
            <mxPoint x="280" y="220" as="sourcePoint" />
            <mxPoint x="360" y="140" as="targetPoint" />
          </mxGeometry>
        </mxCell>
        <mxCell id="A1VcpV70ld59jbdtdWhl-37" value="" style="endArrow=none;html=1;rounded=0;" edge="1" parent="1">
          <mxGeometry width="50" height="50" relative="1" as="geometry">
            <mxPoint x="450" y="160" as="sourcePoint" />
            <mxPoint x="450" y="140" as="targetPoint" />
          </mxGeometry>
        </mxCell>
        <mxCell id="A1VcpV70ld59jbdtdWhl-39" value="" style="endArrow=none;html=1;rounded=0;" edge="1" parent="1">
          <mxGeometry width="50" height="50" relative="1" as="geometry">
            <mxPoint x="540" y="160" as="sourcePoint" />
            <mxPoint x="540" y="140" as="targetPoint" />
          </mxGeometry>
        </mxCell>
        <mxCell id="A1VcpV70ld59jbdtdWhl-40" value="" style="endArrow=none;html=1;rounded=0;exitX=0.5;exitY=0;exitDx=0;exitDy=0;" edge="1" parent="1" source="A1VcpV70ld59jbdtdWhl-24">
          <mxGeometry width="50" height="50" relative="1" as="geometry">
            <mxPoint x="560" y="160" as="sourcePoint" />
            <mxPoint x="625" y="140" as="targetPoint" />
          </mxGeometry>
        </mxCell>
        <mxCell id="A1VcpV70ld59jbdtdWhl-41" value="" style="endArrow=none;html=1;rounded=0;exitX=0.5;exitY=0;exitDx=0;exitDy=0;" edge="1" parent="1" source="A1VcpV70ld59jbdtdWhl-25">
          <mxGeometry width="50" height="50" relative="1" as="geometry">
            <mxPoint x="560" y="160" as="sourcePoint" />
            <mxPoint x="715" y="140" as="targetPoint" />
          </mxGeometry>
        </mxCell>
        <mxCell id="A1VcpV70ld59jbdtdWhl-42" value="" style="endArrow=none;html=1;rounded=0;exitX=0.567;exitY=0.018;exitDx=0;exitDy=0;exitPerimeter=0;" edge="1" parent="1" source="A1VcpV70ld59jbdtdWhl-26">
          <mxGeometry width="50" height="50" relative="1" as="geometry">
            <mxPoint x="680" y="160" as="sourcePoint" />
            <mxPoint x="800" y="140" as="targetPoint" />
          </mxGeometry>
        </mxCell>
        <mxCell id="A1VcpV70ld59jbdtdWhl-43" value="&lt;font style=&quot;font-size: 7px;&quot;&gt;Identifikasi Kebutuhan Bisnis&lt;/font&gt;" style="rounded=1;whiteSpace=wrap;html=1;" vertex="1" parent="1">
          <mxGeometry x="5" y="210" width="60" height="30" as="geometry" />
        </mxCell>
        <mxCell id="A1VcpV70ld59jbdtdWhl-44" value="&lt;font style=&quot;font-size: 8px;&quot;&gt;Penyusunan Tim Evaluasi&lt;/font&gt;" style="rounded=1;whiteSpace=wrap;html=1;" vertex="1" parent="1">
          <mxGeometry x="5" y="260" width="60" height="30" as="geometry" />
        </mxCell>
        <mxCell id="A1VcpV70ld59jbdtdWhl-45" value="&lt;font style=&quot;font-size: 8px;&quot;&gt;Penetapan Kriteria Evaluas&lt;/font&gt;" style="rounded=1;whiteSpace=wrap;html=1;" vertex="1" parent="1">
          <mxGeometry x="5" y="310" width="60" height="30" as="geometry" />
        </mxCell>
        <mxCell id="A1VcpV70ld59jbdtdWhl-46" value="&lt;font style=&quot;font-size: 8px;&quot;&gt;Evaluasi Fitur dan Fungsi&lt;/font&gt;" style="rounded=1;whiteSpace=wrap;html=1;" vertex="1" parent="1">
          <mxGeometry x="85" y="260" width="60" height="30" as="geometry" />
        </mxCell>
        <mxCell id="A1VcpV70ld59jbdtdWhl-47" value="&lt;font style=&quot;font-size: 6px;&quot;&gt;Penelitian Penyedia Layanan&lt;/font&gt;" style="rounded=1;whiteSpace=wrap;html=1;" vertex="1" parent="1">
          <mxGeometry x="85" y="210" width="60" height="30" as="geometry" />
        </mxCell>
        <mxCell id="A1VcpV70ld59jbdtdWhl-48" value="&lt;font style=&quot;font-size: 9px;&quot;&gt;Evaluasi Keamanan&lt;/font&gt;" style="rounded=1;whiteSpace=wrap;html=1;" vertex="1" parent="1">
          <mxGeometry x="85" y="360" width="60" height="30" as="geometry" />
        </mxCell>
        <mxCell id="A1VcpV70ld59jbdtdWhl-49" value="&lt;div&gt;&lt;font style=&quot;font-size: 9px;&quot;&gt;Evaluasi Kinerja&lt;/font&gt;&lt;/div&gt;" style="rounded=1;whiteSpace=wrap;html=1;" vertex="1" parent="1">
          <mxGeometry x="85" y="310" width="60" height="30" as="geometry" />
        </mxCell>
        <mxCell id="A1VcpV70ld59jbdtdWhl-50" value="&lt;font style=&quot;font-size: 5px;&quot;&gt;Penentuan Penyedia Layanan cloud Terbaik&lt;/font&gt;" style="rounded=1;whiteSpace=wrap;html=1;" vertex="1" parent="1">
          <mxGeometry x="165" y="210" width="60" height="30" as="geometry" />
        </mxCell>
        <mxCell id="A1VcpV70ld59jbdtdWhl-51" value="&lt;font style=&quot;font-size: 6px;&quot;&gt;Penelitian Penyedia Layanan&lt;/font&gt;" style="rounded=1;whiteSpace=wrap;html=1;" vertex="1" parent="1">
          <mxGeometry x="165" y="310" width="60" height="30" as="geometry" />
        </mxCell>
        <mxCell id="A1VcpV70ld59jbdtdWhl-52" value="&lt;font style=&quot;font-size: 6px;&quot;&gt;Penelitian Penyedia Layanan&lt;/font&gt;" style="rounded=1;whiteSpace=wrap;html=1;" vertex="1" parent="1">
          <mxGeometry x="165" y="260" width="60" height="30" as="geometry" />
        </mxCell>
        <mxCell id="A1VcpV70ld59jbdtdWhl-53" value="&lt;font style=&quot;font-size: 8px;&quot;&gt;Evaluasi Biaya dan Kontrak&lt;/font&gt;" style="rounded=1;whiteSpace=wrap;html=1;" vertex="1" parent="1">
          <mxGeometry x="85" y="460" width="60" height="30" as="geometry" />
        </mxCell>
        <mxCell id="A1VcpV70ld59jbdtdWhl-54" value="&lt;font style=&quot;font-size: 6px;&quot;&gt;Evaluasi Kepatuhan Regulas&lt;/font&gt;" style="rounded=1;whiteSpace=wrap;html=1;" vertex="1" parent="1">
          <mxGeometry x="85" y="410" width="60" height="30" as="geometry" />
        </mxCell>
        <mxCell id="A1VcpV70ld59jbdtdWhl-55" value="&lt;font style=&quot;font-size: 8px;&quot;&gt;Perencanaan Migrasi Data&lt;/font&gt;" style="rounded=1;whiteSpace=wrap;html=1;" vertex="1" parent="1">
          <mxGeometry x="245" y="210" width="60" height="30" as="geometry" />
        </mxCell>
        <mxCell id="A1VcpV70ld59jbdtdWhl-56" value="&lt;font style=&quot;font-size: 7px;&quot;&gt;Pelaksanaan Migrasi Data&lt;/font&gt;" style="rounded=1;whiteSpace=wrap;html=1;" vertex="1" parent="1">
          <mxGeometry x="245" y="360" width="60" height="30" as="geometry" />
        </mxCell>
        <mxCell id="A1VcpV70ld59jbdtdWhl-57" value="&lt;font style=&quot;font-size: 6px;&quot;&gt;Pengujian dan Validasi Data&lt;/font&gt;" style="rounded=1;whiteSpace=wrap;html=1;" vertex="1" parent="1">
          <mxGeometry x="245" y="310" width="60" height="30" as="geometry" />
        </mxCell>
        <mxCell id="A1VcpV70ld59jbdtdWhl-58" value="&lt;font style=&quot;font-size: 5px;&quot;&gt;Penentuan Penyedia Layanan cloud Terbaik&lt;/font&gt;" style="rounded=1;whiteSpace=wrap;html=1;" vertex="1" parent="1">
          <mxGeometry x="245" y="260" width="60" height="30" as="geometry" />
        </mxCell>
        <mxCell id="A1VcpV70ld59jbdtdWhl-59" value="&lt;font style=&quot;font-size: 6px;&quot;&gt;Pengaturan Manajemen Akses&lt;/font&gt;" style="rounded=1;whiteSpace=wrap;html=1;" vertex="1" parent="1">
          <mxGeometry x="330" y="360" width="60" height="30" as="geometry" />
        </mxCell>
        <mxCell id="A1VcpV70ld59jbdtdWhl-60" value="&lt;font style=&quot;font-size: 8px;&quot;&gt;Konfigurasi Keamanan&lt;/font&gt;" style="rounded=1;whiteSpace=wrap;html=1;" vertex="1" parent="1">
          <mxGeometry x="330" y="310" width="60" height="30" as="geometry" />
        </mxCell>
        <mxCell id="A1VcpV70ld59jbdtdWhl-61" value="&lt;font style=&quot;font-size: 7px;&quot;&gt;Integrasi dengan Sistem Internal&lt;/font&gt;" style="rounded=1;whiteSpace=wrap;html=1;" vertex="1" parent="1">
          <mxGeometry x="330" y="260" width="60" height="30" as="geometry" />
        </mxCell>
        <mxCell id="A1VcpV70ld59jbdtdWhl-62" value="&lt;font style=&quot;font-size: 6px;&quot;&gt;Penyiapan dan Konfigurasi Layanan&lt;/font&gt;" style="rounded=1;whiteSpace=wrap;html=1;" vertex="1" parent="1">
          <mxGeometry x="330" y="210" width="60" height="30" as="geometry" />
        </mxCell>
        <mxCell id="A1VcpV70ld59jbdtdWhl-63" value="&lt;font style=&quot;font-size: 8px;&quot;&gt;Pengujian Keamanan&lt;/font&gt;" style="rounded=1;whiteSpace=wrap;html=1;" vertex="1" parent="1">
          <mxGeometry x="418" y="260" width="60" height="30" as="geometry" />
        </mxCell>
        <mxCell id="A1VcpV70ld59jbdtdWhl-64" value="&lt;font style=&quot;font-size: 8px;&quot;&gt;Pengujian Kinerja&lt;/font&gt;" style="rounded=1;whiteSpace=wrap;html=1;" vertex="1" parent="1">
          <mxGeometry x="418" y="210" width="60" height="30" as="geometry" />
        </mxCell>
        <mxCell id="A1VcpV70ld59jbdtdWhl-65" value="&lt;font style=&quot;font-size: 7px;&quot;&gt;Penyesuaian dan Optimalisasi&lt;/font&gt;" style="rounded=1;whiteSpace=wrap;html=1;" vertex="1" parent="1">
          <mxGeometry x="419" y="360" width="60" height="30" as="geometry" />
        </mxCell>
        <mxCell id="A1VcpV70ld59jbdtdWhl-66" value="&lt;font style=&quot;font-size: 8px;&quot;&gt;Validasi Konfiguras&lt;/font&gt;" style="rounded=1;whiteSpace=wrap;html=1;" vertex="1" parent="1">
          <mxGeometry x="418" y="310" width="60" height="30" as="geometry" />
        </mxCell>
        <mxCell id="A1VcpV70ld59jbdtdWhl-67" value="&lt;font style=&quot;font-size: 8px;&quot;&gt;Pelatihan Pengguna&lt;/font&gt;" style="rounded=1;whiteSpace=wrap;html=1;" vertex="1" parent="1">
          <mxGeometry x="510" y="260" width="60" height="30" as="geometry" />
        </mxCell>
        <mxCell id="A1VcpV70ld59jbdtdWhl-68" value="&lt;font style=&quot;font-size: 7px;&quot;&gt;Persiapan Materi Pelatihan&lt;/font&gt;" style="rounded=1;whiteSpace=wrap;html=1;" vertex="1" parent="1">
          <mxGeometry x="510" y="210" width="60" height="30" as="geometry" />
        </mxCell>
        <mxCell id="A1VcpV70ld59jbdtdWhl-69" value="&lt;font style=&quot;font-size: 8px;&quot;&gt;Panduan Pengguna&lt;/font&gt;" style="rounded=1;whiteSpace=wrap;html=1;" vertex="1" parent="1">
          <mxGeometry x="511" y="310" width="60" height="30" as="geometry" />
        </mxCell>
        <mxCell id="A1VcpV70ld59jbdtdWhl-70" value="&lt;font style=&quot;font-size: 8px;&quot;&gt;Peluncuran Operasional&lt;/font&gt;" style="rounded=1;whiteSpace=wrap;html=1;" vertex="1" parent="1">
          <mxGeometry x="597" y="260" width="60" height="30" as="geometry" />
        </mxCell>
        <mxCell id="A1VcpV70ld59jbdtdWhl-71" value="&lt;font style=&quot;font-size: 8px;&quot;&gt;Pemutakhiran Akhir&lt;/font&gt;" style="rounded=1;whiteSpace=wrap;html=1;" vertex="1" parent="1">
          <mxGeometry x="597" y="210" width="60" height="30" as="geometry" />
        </mxCell>
        <mxCell id="A1VcpV70ld59jbdtdWhl-72" value="&lt;font style=&quot;font-size: 8px;&quot;&gt;Pemantauan Awal&lt;/font&gt;" style="rounded=1;whiteSpace=wrap;html=1;" vertex="1" parent="1">
          <mxGeometry x="598" y="310" width="60" height="30" as="geometry" />
        </mxCell>
        <mxCell id="A1VcpV70ld59jbdtdWhl-79" value="&lt;font style=&quot;font-size: 8px;&quot;&gt;Dukungan Pengguna&lt;/font&gt;" style="rounded=1;whiteSpace=wrap;html=1;" vertex="1" parent="1">
          <mxGeometry x="686" y="260" width="60" height="30" as="geometry" />
        </mxCell>
        <mxCell id="A1VcpV70ld59jbdtdWhl-80" value="&lt;font style=&quot;font-size: 8px;&quot;&gt;Pemeliharaan Rutin&lt;/font&gt;" style="rounded=1;whiteSpace=wrap;html=1;" vertex="1" parent="1">
          <mxGeometry x="686" y="210" width="60" height="30" as="geometry" />
        </mxCell>
        <mxCell id="A1VcpV70ld59jbdtdWhl-81" value="&lt;font style=&quot;font-size: 8px;&quot;&gt;Manajemen Perubahan&lt;/font&gt;" style="rounded=1;whiteSpace=wrap;html=1;" vertex="1" parent="1">
          <mxGeometry x="685" y="310" width="60" height="30" as="geometry" />
        </mxCell>
        <mxCell id="A1VcpV70ld59jbdtdWhl-82" value="&lt;font style=&quot;font-size: 8px;&quot;&gt;Umpan Balik Pengguna&lt;/font&gt;" style="rounded=1;whiteSpace=wrap;html=1;" vertex="1" parent="1">
          <mxGeometry x="765" y="260" width="60" height="30" as="geometry" />
        </mxCell>
        <mxCell id="A1VcpV70ld59jbdtdWhl-83" value="&lt;font style=&quot;font-size: 6px;&quot;&gt;Evaluasi Performa Layanan Cloud&lt;/font&gt;" style="rounded=1;whiteSpace=wrap;html=1;" vertex="1" parent="1">
          <mxGeometry x="765" y="210" width="60" height="30" as="geometry" />
        </mxCell>
        <mxCell id="A1VcpV70ld59jbdtdWhl-84" value="&lt;font style=&quot;font-size: 8px;&quot;&gt;Rekomendasi Perbaikan&lt;/font&gt;" style="rounded=1;whiteSpace=wrap;html=1;" vertex="1" parent="1">
          <mxGeometry x="766" y="360" width="60" height="30" as="geometry" />
        </mxCell>
        <mxCell id="A1VcpV70ld59jbdtdWhl-85" value="&lt;font style=&quot;font-size: 7px;&quot;&gt;Pembuatan Laporan Evaluasi&lt;/font&gt;" style="rounded=1;whiteSpace=wrap;html=1;" vertex="1" parent="1">
          <mxGeometry x="766" y="310" width="60" height="30" as="geometry" />
        </mxCell>
        <mxCell id="A1VcpV70ld59jbdtdWhl-89" value="" style="endArrow=none;html=1;rounded=0;entryX=0.472;entryY=0.979;entryDx=0;entryDy=0;entryPerimeter=0;exitX=0.5;exitY=0;exitDx=0;exitDy=0;" edge="1" parent="1" source="A1VcpV70ld59jbdtdWhl-43" target="A1VcpV70ld59jbdtdWhl-2">
          <mxGeometry width="50" height="50" relative="1" as="geometry">
            <mxPoint x="33" y="210" as="sourcePoint" />
            <mxPoint x="110" y="240" as="targetPoint" />
            <Array as="points">
              <mxPoint x="35" y="200" />
            </Array>
          </mxGeometry>
        </mxCell>
        <mxCell id="A1VcpV70ld59jbdtdWhl-90" value="" style="endArrow=none;html=1;rounded=0;entryX=0.5;entryY=1;entryDx=0;entryDy=0;exitX=0.5;exitY=0;exitDx=0;exitDy=0;" edge="1" parent="1" source="A1VcpV70ld59jbdtdWhl-44" target="A1VcpV70ld59jbdtdWhl-43">
          <mxGeometry width="50" height="50" relative="1" as="geometry">
            <mxPoint x="40" y="270" as="sourcePoint" />
            <mxPoint x="90" y="220" as="targetPoint" />
          </mxGeometry>
        </mxCell>
        <mxCell id="A1VcpV70ld59jbdtdWhl-91" value="" style="endArrow=none;html=1;rounded=0;entryX=0.5;entryY=1;entryDx=0;entryDy=0;exitX=0.5;exitY=0;exitDx=0;exitDy=0;" edge="1" parent="1" source="A1VcpV70ld59jbdtdWhl-45" target="A1VcpV70ld59jbdtdWhl-44">
          <mxGeometry width="50" height="50" relative="1" as="geometry">
            <mxPoint x="40" y="320" as="sourcePoint" />
            <mxPoint x="90" y="270" as="targetPoint" />
          </mxGeometry>
        </mxCell>
        <mxCell id="A1VcpV70ld59jbdtdWhl-92" value="" style="endArrow=none;html=1;rounded=0;entryX=0.5;entryY=1;entryDx=0;entryDy=0;exitX=0.5;exitY=0;exitDx=0;exitDy=0;" edge="1" parent="1" source="A1VcpV70ld59jbdtdWhl-46" target="A1VcpV70ld59jbdtdWhl-47">
          <mxGeometry width="50" height="50" relative="1" as="geometry">
            <mxPoint x="120" y="260" as="sourcePoint" />
            <mxPoint x="90" y="290" as="targetPoint" />
          </mxGeometry>
        </mxCell>
        <mxCell id="A1VcpV70ld59jbdtdWhl-93" value="" style="endArrow=none;html=1;rounded=0;entryX=0.5;entryY=1;entryDx=0;entryDy=0;exitX=0.5;exitY=0;exitDx=0;exitDy=0;" edge="1" parent="1" source="A1VcpV70ld59jbdtdWhl-47" target="A1VcpV70ld59jbdtdWhl-18">
          <mxGeometry width="50" height="50" relative="1" as="geometry">
            <mxPoint x="90" y="250" as="sourcePoint" />
            <mxPoint x="140" y="200" as="targetPoint" />
          </mxGeometry>
        </mxCell>
        <mxCell id="A1VcpV70ld59jbdtdWhl-94" value="" style="endArrow=none;html=1;rounded=0;entryX=0.5;entryY=1;entryDx=0;entryDy=0;exitX=0.5;exitY=0;exitDx=0;exitDy=0;" edge="1" parent="1" source="A1VcpV70ld59jbdtdWhl-49" target="A1VcpV70ld59jbdtdWhl-46">
          <mxGeometry width="50" height="50" relative="1" as="geometry">
            <mxPoint x="90" y="330" as="sourcePoint" />
            <mxPoint x="140" y="280" as="targetPoint" />
          </mxGeometry>
        </mxCell>
        <mxCell id="A1VcpV70ld59jbdtdWhl-95" value="" style="endArrow=none;html=1;rounded=0;entryX=0.5;entryY=1;entryDx=0;entryDy=0;exitX=0.5;exitY=0;exitDx=0;exitDy=0;" edge="1" parent="1" source="A1VcpV70ld59jbdtdWhl-48" target="A1VcpV70ld59jbdtdWhl-49">
          <mxGeometry width="50" height="50" relative="1" as="geometry">
            <mxPoint x="90" y="390" as="sourcePoint" />
            <mxPoint x="140" y="340" as="targetPoint" />
          </mxGeometry>
        </mxCell>
        <mxCell id="A1VcpV70ld59jbdtdWhl-96" value="" style="endArrow=none;html=1;rounded=0;entryX=0.5;entryY=1;entryDx=0;entryDy=0;exitX=0.5;exitY=0;exitDx=0;exitDy=0;" edge="1" parent="1" source="A1VcpV70ld59jbdtdWhl-50" target="A1VcpV70ld59jbdtdWhl-19">
          <mxGeometry width="50" height="50" relative="1" as="geometry">
            <mxPoint x="160" y="260" as="sourcePoint" />
            <mxPoint x="210" y="210" as="targetPoint" />
          </mxGeometry>
        </mxCell>
        <mxCell id="A1VcpV70ld59jbdtdWhl-97" value="" style="endArrow=none;html=1;rounded=0;entryX=0.5;entryY=1;entryDx=0;entryDy=0;exitX=0.5;exitY=0;exitDx=0;exitDy=0;" edge="1" parent="1" source="A1VcpV70ld59jbdtdWhl-52" target="A1VcpV70ld59jbdtdWhl-50">
          <mxGeometry width="50" height="50" relative="1" as="geometry">
            <mxPoint x="160" y="260" as="sourcePoint" />
            <mxPoint x="210" y="210" as="targetPoint" />
          </mxGeometry>
        </mxCell>
        <mxCell id="A1VcpV70ld59jbdtdWhl-98" value="" style="endArrow=none;html=1;rounded=0;entryX=0.5;entryY=1;entryDx=0;entryDy=0;exitX=0.5;exitY=0;exitDx=0;exitDy=0;" edge="1" parent="1" source="A1VcpV70ld59jbdtdWhl-51" target="A1VcpV70ld59jbdtdWhl-52">
          <mxGeometry width="50" height="50" relative="1" as="geometry">
            <mxPoint x="160" y="320" as="sourcePoint" />
            <mxPoint x="210" y="270" as="targetPoint" />
          </mxGeometry>
        </mxCell>
        <mxCell id="A1VcpV70ld59jbdtdWhl-99" value="" style="endArrow=none;html=1;rounded=0;entryX=0.5;entryY=1;entryDx=0;entryDy=0;exitX=0.5;exitY=0;exitDx=0;exitDy=0;" edge="1" parent="1" source="A1VcpV70ld59jbdtdWhl-56" target="A1VcpV70ld59jbdtdWhl-57">
          <mxGeometry width="50" height="50" relative="1" as="geometry">
            <mxPoint x="230" y="350" as="sourcePoint" />
            <mxPoint x="210" y="310" as="targetPoint" />
          </mxGeometry>
        </mxCell>
        <mxCell id="A1VcpV70ld59jbdtdWhl-100" value="" style="endArrow=none;html=1;rounded=0;entryX=0.5;entryY=1;entryDx=0;entryDy=0;exitX=0.5;exitY=0;exitDx=0;exitDy=0;" edge="1" parent="1" source="A1VcpV70ld59jbdtdWhl-58" target="A1VcpV70ld59jbdtdWhl-55">
          <mxGeometry width="50" height="50" relative="1" as="geometry">
            <mxPoint x="230" y="250" as="sourcePoint" />
            <mxPoint x="280" y="200" as="targetPoint" />
          </mxGeometry>
        </mxCell>
        <mxCell id="A1VcpV70ld59jbdtdWhl-101" value="" style="endArrow=none;html=1;rounded=0;entryX=0.5;entryY=1;entryDx=0;entryDy=0;exitX=0.5;exitY=0;exitDx=0;exitDy=0;" edge="1" parent="1" source="A1VcpV70ld59jbdtdWhl-55" target="A1VcpV70ld59jbdtdWhl-17">
          <mxGeometry width="50" height="50" relative="1" as="geometry">
            <mxPoint x="230" y="250" as="sourcePoint" />
            <mxPoint x="280" y="200" as="targetPoint" />
          </mxGeometry>
        </mxCell>
        <mxCell id="A1VcpV70ld59jbdtdWhl-102" value="" style="endArrow=none;html=1;rounded=0;entryX=0.5;entryY=1;entryDx=0;entryDy=0;exitX=0.5;exitY=0;exitDx=0;exitDy=0;" edge="1" parent="1" source="A1VcpV70ld59jbdtdWhl-57" target="A1VcpV70ld59jbdtdWhl-58">
          <mxGeometry width="50" height="50" relative="1" as="geometry">
            <mxPoint x="230" y="350" as="sourcePoint" />
            <mxPoint x="280" y="300" as="targetPoint" />
          </mxGeometry>
        </mxCell>
        <mxCell id="A1VcpV70ld59jbdtdWhl-103" value="" style="endArrow=none;html=1;rounded=0;entryX=0.5;entryY=1;entryDx=0;entryDy=0;exitX=0.5;exitY=0;exitDx=0;exitDy=0;" edge="1" parent="1" source="A1VcpV70ld59jbdtdWhl-62" target="A1VcpV70ld59jbdtdWhl-20">
          <mxGeometry width="50" height="50" relative="1" as="geometry">
            <mxPoint x="340" y="240" as="sourcePoint" />
            <mxPoint x="390" y="190" as="targetPoint" />
          </mxGeometry>
        </mxCell>
        <mxCell id="A1VcpV70ld59jbdtdWhl-104" value="" style="endArrow=none;html=1;rounded=0;entryX=0.5;entryY=1;entryDx=0;entryDy=0;exitX=0.5;exitY=0;exitDx=0;exitDy=0;" edge="1" parent="1" source="A1VcpV70ld59jbdtdWhl-61" target="A1VcpV70ld59jbdtdWhl-62">
          <mxGeometry width="50" height="50" relative="1" as="geometry">
            <mxPoint x="340" y="280" as="sourcePoint" />
            <mxPoint x="390" y="230" as="targetPoint" />
          </mxGeometry>
        </mxCell>
        <mxCell id="A1VcpV70ld59jbdtdWhl-105" value="" style="endArrow=none;html=1;rounded=0;entryX=0.5;entryY=1;entryDx=0;entryDy=0;exitX=0.5;exitY=0;exitDx=0;exitDy=0;" edge="1" parent="1" source="A1VcpV70ld59jbdtdWhl-60" target="A1VcpV70ld59jbdtdWhl-61">
          <mxGeometry width="50" height="50" relative="1" as="geometry">
            <mxPoint x="340" y="340" as="sourcePoint" />
            <mxPoint x="390" y="290" as="targetPoint" />
          </mxGeometry>
        </mxCell>
        <mxCell id="A1VcpV70ld59jbdtdWhl-106" value="" style="endArrow=none;html=1;rounded=0;entryX=0.5;entryY=1;entryDx=0;entryDy=0;exitX=0.5;exitY=0;exitDx=0;exitDy=0;" edge="1" parent="1" source="A1VcpV70ld59jbdtdWhl-59" target="A1VcpV70ld59jbdtdWhl-60">
          <mxGeometry width="50" height="50" relative="1" as="geometry">
            <mxPoint x="340" y="380" as="sourcePoint" />
            <mxPoint x="390" y="330" as="targetPoint" />
          </mxGeometry>
        </mxCell>
        <mxCell id="A1VcpV70ld59jbdtdWhl-108" value="" style="endArrow=none;html=1;rounded=0;entryX=0.5;entryY=1;entryDx=0;entryDy=0;exitX=0.522;exitY=0.014;exitDx=0;exitDy=0;exitPerimeter=0;" edge="1" parent="1" source="A1VcpV70ld59jbdtdWhl-64" target="A1VcpV70ld59jbdtdWhl-21">
          <mxGeometry width="50" height="50" relative="1" as="geometry">
            <mxPoint x="430" y="260" as="sourcePoint" />
            <mxPoint x="480" y="210" as="targetPoint" />
          </mxGeometry>
        </mxCell>
        <mxCell id="A1VcpV70ld59jbdtdWhl-109" value="" style="endArrow=none;html=1;rounded=0;entryX=0.5;entryY=1;entryDx=0;entryDy=0;exitX=0.5;exitY=0;exitDx=0;exitDy=0;" edge="1" parent="1" source="A1VcpV70ld59jbdtdWhl-63" target="A1VcpV70ld59jbdtdWhl-64">
          <mxGeometry width="50" height="50" relative="1" as="geometry">
            <mxPoint x="430" y="260" as="sourcePoint" />
            <mxPoint x="480" y="210" as="targetPoint" />
          </mxGeometry>
        </mxCell>
        <mxCell id="A1VcpV70ld59jbdtdWhl-110" value="" style="endArrow=none;html=1;rounded=0;entryX=0.5;entryY=1;entryDx=0;entryDy=0;exitX=0.5;exitY=0;exitDx=0;exitDy=0;" edge="1" parent="1" source="A1VcpV70ld59jbdtdWhl-66" target="A1VcpV70ld59jbdtdWhl-63">
          <mxGeometry width="50" height="50" relative="1" as="geometry">
            <mxPoint x="430" y="340" as="sourcePoint" />
            <mxPoint x="480" y="290" as="targetPoint" />
          </mxGeometry>
        </mxCell>
        <mxCell id="A1VcpV70ld59jbdtdWhl-111" value="" style="endArrow=none;html=1;rounded=0;entryX=0.5;entryY=1;entryDx=0;entryDy=0;exitX=0.48;exitY=0;exitDx=0;exitDy=0;exitPerimeter=0;" edge="1" parent="1" source="A1VcpV70ld59jbdtdWhl-65" target="A1VcpV70ld59jbdtdWhl-66">
          <mxGeometry width="50" height="50" relative="1" as="geometry">
            <mxPoint x="430" y="380" as="sourcePoint" />
            <mxPoint x="480" y="330" as="targetPoint" />
          </mxGeometry>
        </mxCell>
        <mxCell id="A1VcpV70ld59jbdtdWhl-112" value="" style="endArrow=none;html=1;rounded=0;entryX=0.5;entryY=1;entryDx=0;entryDy=0;exitX=0.5;exitY=0;exitDx=0;exitDy=0;" edge="1" parent="1" source="A1VcpV70ld59jbdtdWhl-68" target="A1VcpV70ld59jbdtdWhl-22">
          <mxGeometry width="50" height="50" relative="1" as="geometry">
            <mxPoint x="520" y="250" as="sourcePoint" />
            <mxPoint x="570" y="200" as="targetPoint" />
          </mxGeometry>
        </mxCell>
        <mxCell id="A1VcpV70ld59jbdtdWhl-113" value="" style="endArrow=none;html=1;rounded=0;entryX=0.5;entryY=1;entryDx=0;entryDy=0;exitX=0.5;exitY=0;exitDx=0;exitDy=0;" edge="1" parent="1" source="A1VcpV70ld59jbdtdWhl-67" target="A1VcpV70ld59jbdtdWhl-68">
          <mxGeometry width="50" height="50" relative="1" as="geometry">
            <mxPoint x="520" y="260" as="sourcePoint" />
            <mxPoint x="570" y="210" as="targetPoint" />
          </mxGeometry>
        </mxCell>
        <mxCell id="A1VcpV70ld59jbdtdWhl-114" value="" style="endArrow=none;html=1;rounded=0;entryX=0.5;entryY=1;entryDx=0;entryDy=0;exitX=0.482;exitY=-0.003;exitDx=0;exitDy=0;exitPerimeter=0;" edge="1" parent="1" source="A1VcpV70ld59jbdtdWhl-69" target="A1VcpV70ld59jbdtdWhl-67">
          <mxGeometry width="50" height="50" relative="1" as="geometry">
            <mxPoint x="520" y="340" as="sourcePoint" />
            <mxPoint x="570" y="290" as="targetPoint" />
          </mxGeometry>
        </mxCell>
        <mxCell id="A1VcpV70ld59jbdtdWhl-115" value="" style="endArrow=none;html=1;rounded=0;entryX=0.5;entryY=1;entryDx=0;entryDy=0;exitX=0.466;exitY=0.02;exitDx=0;exitDy=0;exitPerimeter=0;" edge="1" parent="1" source="A1VcpV70ld59jbdtdWhl-71" target="A1VcpV70ld59jbdtdWhl-24">
          <mxGeometry width="50" height="50" relative="1" as="geometry">
            <mxPoint x="610" y="240" as="sourcePoint" />
            <mxPoint x="660" y="190" as="targetPoint" />
          </mxGeometry>
        </mxCell>
        <mxCell id="A1VcpV70ld59jbdtdWhl-116" value="" style="endArrow=none;html=1;rounded=0;entryX=0.5;entryY=1;entryDx=0;entryDy=0;exitX=0.5;exitY=0;exitDx=0;exitDy=0;" edge="1" parent="1" source="A1VcpV70ld59jbdtdWhl-70" target="A1VcpV70ld59jbdtdWhl-71">
          <mxGeometry width="50" height="50" relative="1" as="geometry">
            <mxPoint x="610" y="280" as="sourcePoint" />
            <mxPoint x="660" y="230" as="targetPoint" />
          </mxGeometry>
        </mxCell>
        <mxCell id="A1VcpV70ld59jbdtdWhl-117" value="" style="endArrow=none;html=1;rounded=0;entryX=0.5;entryY=1;entryDx=0;entryDy=0;exitX=0.48;exitY=-0.02;exitDx=0;exitDy=0;exitPerimeter=0;" edge="1" parent="1" source="A1VcpV70ld59jbdtdWhl-72" target="A1VcpV70ld59jbdtdWhl-70">
          <mxGeometry width="50" height="50" relative="1" as="geometry">
            <mxPoint x="610" y="320" as="sourcePoint" />
            <mxPoint x="660" y="270" as="targetPoint" />
          </mxGeometry>
        </mxCell>
        <mxCell id="A1VcpV70ld59jbdtdWhl-118" value="" style="endArrow=none;html=1;rounded=0;entryX=0.5;entryY=1;entryDx=0;entryDy=0;exitX=0.481;exitY=-0.003;exitDx=0;exitDy=0;exitPerimeter=0;" edge="1" parent="1" source="A1VcpV70ld59jbdtdWhl-80" target="A1VcpV70ld59jbdtdWhl-25">
          <mxGeometry width="50" height="50" relative="1" as="geometry">
            <mxPoint x="690" y="260" as="sourcePoint" />
            <mxPoint x="740" y="210" as="targetPoint" />
          </mxGeometry>
        </mxCell>
        <mxCell id="A1VcpV70ld59jbdtdWhl-119" value="" style="endArrow=none;html=1;rounded=0;entryX=0.5;entryY=1;entryDx=0;entryDy=0;exitX=0.5;exitY=0;exitDx=0;exitDy=0;" edge="1" parent="1" source="A1VcpV70ld59jbdtdWhl-79" target="A1VcpV70ld59jbdtdWhl-80">
          <mxGeometry width="50" height="50" relative="1" as="geometry">
            <mxPoint x="690" y="290" as="sourcePoint" />
            <mxPoint x="740" y="240" as="targetPoint" />
          </mxGeometry>
        </mxCell>
        <mxCell id="A1VcpV70ld59jbdtdWhl-120" value="" style="endArrow=none;html=1;rounded=0;entryX=0.5;entryY=1;entryDx=0;entryDy=0;exitX=0.523;exitY=-0.008;exitDx=0;exitDy=0;exitPerimeter=0;" edge="1" parent="1" source="A1VcpV70ld59jbdtdWhl-81" target="A1VcpV70ld59jbdtdWhl-79">
          <mxGeometry width="50" height="50" relative="1" as="geometry">
            <mxPoint x="690" y="330" as="sourcePoint" />
            <mxPoint x="740" y="280" as="targetPoint" />
          </mxGeometry>
        </mxCell>
        <mxCell id="A1VcpV70ld59jbdtdWhl-121" value="" style="endArrow=none;html=1;rounded=0;entryX=0.5;entryY=1;entryDx=0;entryDy=0;exitX=0.5;exitY=0;exitDx=0;exitDy=0;" edge="1" parent="1" source="A1VcpV70ld59jbdtdWhl-83" target="A1VcpV70ld59jbdtdWhl-26">
          <mxGeometry width="50" height="50" relative="1" as="geometry">
            <mxPoint x="810" y="250" as="sourcePoint" />
            <mxPoint x="860" y="200" as="targetPoint" />
          </mxGeometry>
        </mxCell>
        <mxCell id="A1VcpV70ld59jbdtdWhl-122" value="" style="endArrow=none;html=1;rounded=0;entryX=0.5;entryY=1;entryDx=0;entryDy=0;exitX=0.5;exitY=0;exitDx=0;exitDy=0;" edge="1" parent="1" source="A1VcpV70ld59jbdtdWhl-82" target="A1VcpV70ld59jbdtdWhl-83">
          <mxGeometry width="50" height="50" relative="1" as="geometry">
            <mxPoint x="800" y="250" as="sourcePoint" />
            <mxPoint x="850" y="200" as="targetPoint" />
          </mxGeometry>
        </mxCell>
        <mxCell id="A1VcpV70ld59jbdtdWhl-123" value="" style="endArrow=none;html=1;rounded=0;entryX=0.5;entryY=1;entryDx=0;entryDy=0;exitX=0.481;exitY=-0.025;exitDx=0;exitDy=0;exitPerimeter=0;" edge="1" parent="1" source="A1VcpV70ld59jbdtdWhl-85" target="A1VcpV70ld59jbdtdWhl-82">
          <mxGeometry width="50" height="50" relative="1" as="geometry">
            <mxPoint x="800" y="320" as="sourcePoint" />
            <mxPoint x="850" y="270" as="targetPoint" />
          </mxGeometry>
        </mxCell>
        <mxCell id="A1VcpV70ld59jbdtdWhl-124" value="" style="endArrow=none;html=1;rounded=0;entryX=0.5;entryY=1;entryDx=0;entryDy=0;exitX=0.5;exitY=0;exitDx=0;exitDy=0;" edge="1" parent="1" source="A1VcpV70ld59jbdtdWhl-84" target="A1VcpV70ld59jbdtdWhl-85">
          <mxGeometry width="50" height="50" relative="1" as="geometry">
            <mxPoint x="800" y="390" as="sourcePoint" />
            <mxPoint x="850" y="340" as="targetPoint" />
          </mxGeometry>
        </mxCell>
      </root>
    </mxGraphModel>
  </diagram>
</mxfile>
